<?xml version="1.0" encoding="UTF-8" standalone="no"?>
<!DOCTYPE svg PUBLIC "-//W3C//DTD SVG 1.1//EN" "http://www.w3.org/Graphics/SVG/1.1/DTD/svg11.dtd">
<svg width="100%" height="100%" viewBox="0 0 2000 400" version="1.1" xmlns="http://www.w3.org/2000/svg" xmlns:xlink="http://www.w3.org/1999/xlink" xml:space="preserve" xmlns:serif="http://www.serif.com/" style="fill-rule:evenodd;clip-rule:evenodd;stroke-linejoin:round;stroke-miterlimit:2;">
    <g transform="matrix(3.1909,0,0,3.1909,1130.08,149.767)">
        <path d="M0,13.257L-7.867,-10.824L-16.067,13.442L0,13.257ZM3.067,22.45L-18.966,22.417L-23.245,34.672L-34.986,34.777L-14.411,-21.415L-1.283,-21.52L19.04,34.448L6.723,34.67L3.067,22.45Z" style="fill:rgb(244,122,37);fill-rule:nonzero;"/>
    </g>
    <g transform="matrix(3.1909,0,0,3.1909,1295.88,113.167)">
        <path d="M0,33.975C0.462,27.385 0.479,21.271 -0.091,15.076C-1.555,12.328 -6.146,12.126 -9.123,12.675C-17.7,14.256 -17.667,27.662 -14.712,33.957C-13.273,37.024 -9.834,38.039 -7.023,37.879C-4.955,37.761 -0.219,37.094 0,33.975M15.595,46.557C9.219,46.794 5.087,46.939 1.642,41.522C-2.019,45.533 -6.784,47.644 -12.399,47.076C-16.803,46.63 -22.092,44.336 -24.584,39.437C-28.971,30.814 -29.234,19.895 -24.336,11.328C-19.385,2.667 -7.833,1.091 0.237,6.605L0.43,-13.669L11.266,-13.489L11.227,35.02C11.225,37.057 14.152,37.763 16.373,38.234C16.296,40.732 15.997,43.717 15.595,46.557" style="fill:rgb(244,122,37);fill-rule:nonzero;"/>
    </g>
    <g transform="matrix(3.1909,0,0,3.1909,520.083,260.256)">
        <path d="M0,-56.197L12.316,-56.341L-6.642,0.144L-20.781,0.09L-39.116,-56.148L-26.608,-56.284L-13.203,-11.493L-8.709,-27.313L0,-56.197Z" style="fill:rgb(35,31,32);fill-rule:nonzero;"/>
    </g>
    <g transform="matrix(3.1909,0,0,3.1909,819.331,153.141)">
        <path d="M0,25.711C3.662,27.762 8.882,26.038 10.513,22.345C11.483,20.151 11.378,17.35 11.305,14.401C6.425,14.65 -2.166,15.406 -2.808,20.946C-2.957,22.234 -1.688,24.765 0,25.711M12.922,28.745C6.825,35.821 -2.996,37.527 -9.958,31.21C-13.796,27.727 -14.379,22.33 -12.697,17.471C-11.291,13.408 -7.321,9.944 -2.089,9.193L10.777,7.345C12.093,5.76 10.678,1.395 8.699,0.876C2.695,-0.702 -2.768,0.962 -8.492,3.232L-11.811,-4.816C-2.263,-10.41 21.328,-11.816 21.519,2.735L21.79,23.453C22.142,24.688 25.049,25.588 26.785,25.96L26.448,33.747C21.359,35.723 15.968,34.781 12.922,28.745" style="fill:rgb(35,31,32);fill-rule:nonzero;"/>
    </g>
    <g transform="matrix(3.1909,0,0,3.1909,1450.91,129.214)">
        <path d="M0,40.872C-8.896,43.691 -18.487,42.103 -26.038,36.58L-21.255,29.438C-16.175,33.477 -2.842,35.733 -1.699,29.848C-1.5,28.819 -3.152,26.717 -4.275,26.393L-14.393,23.466C-20.345,21.744 -24.302,17.83 -24.519,12.003C-24.737,6.166 -21.404,1.001 -15.169,-0.7C-7.4,-2.819 0.808,-1.36 7.758,2.944L3.703,10.269C-1.054,7.161 -13.541,5.028 -14.218,10.522C-14.344,11.546 -12.688,13.521 -11.59,13.829L-0.577,16.922C5.281,18.568 9.091,22.832 9.121,28.391C9.151,34.002 6.177,38.915 0,40.872" style="fill:rgb(244,122,37);fill-rule:nonzero;"/>
    </g>
    <g transform="matrix(3.1909,0,0,3.1909,986.945,103.848)">
        <path d="M0,40.825C0.679,42.699 0.743,46.265 0.379,48.822C-4.922,51.84 -16.204,49.465 -16.287,42.087L-16.885,-10.901L-5.804,-11.015L-5.68,38.435C-5.677,39.719 -1.742,40.405 0,40.825" style="fill:rgb(35,31,32);fill-rule:nonzero;"/>
    </g>
    <g transform="matrix(3.1909,0,0,3.1909,712.416,205.353)">
        <path d="M0,-8.911C-1.625,-0.195 0.035,8.428 -0.894,17.301L-11.373,17.366L-11.426,-14.438C-13.114,-15.347 -14.941,-16.006 -17.199,-16.795L-16.999,-24.706C-10.114,-24.581 -3.081,-25.917 -1.76,-17.346C1.78,-23.153 7.618,-26.277 14.529,-24.655L13.47,-14.844C8.996,-15.232 1.077,-14.688 0,-8.911" style="fill:rgb(35,31,32);fill-rule:nonzero;"/>
    </g>
    <g transform="matrix(3.1909,0,0,3.1909,1642.42,94.3413)">
        <path d="M0,51.448C-1.466,52.622 -4.221,52.433 -6.536,51.924L-35.266,7.054L-35.503,51.913L-40.828,51.976L-41.127,-0.95C-38.765,-1.174 -36.621,-1.14 -34.177,-0.808L-5.468,43.483L-5.466,-0.79L-0.006,-0.663L0,51.448Z" style="fill:rgb(35,31,32);fill-rule:nonzero;"/>
    </g>
    <g transform="matrix(3.1909,0,0,3.1909,1968.54,261.343)">
        <path d="M0,-39.05C1.581,-39.24 3.537,-39.16 5.315,-38.924L-5.893,-0.14L-12.35,-0.425L-21.548,-30.588L-31.152,-0.28C-32.964,0.19 -34.953,0.041 -37.227,-0.381L-48.29,-38.854C-46.206,-39.056 -44.185,-39.06 -42.532,-38.762L-33.8,-7.418L-24.005,-38.536C-22.377,-38.823 -20.467,-38.971 -18.492,-39.026L-9.213,-7.323L0,-39.05Z" style="fill:rgb(35,31,32);fill-rule:nonzero;"/>
    </g>
    <g transform="matrix(3.1909,0,0,3.1909,1770.27,168.098)">
        <path d="M0,18.792C2.305,12.853 2.329,5.983 0.166,0.408C-1.584,-4.103 -5.859,-6.118 -9.939,-6.146C-13.948,-6.173 -18.319,-4.84 -20.278,-0.661C-23.333,5.856 -23.329,14.333 -19.754,20.594C-17.54,24.471 -13.296,25.461 -9.423,25.17C-5.811,24.899 -1.672,23.101 0,18.792M-10.696,29.756C-19.029,29.73 -25.378,25.469 -27.274,17.518C-28.492,12.412 -28.393,6.57 -27.189,1.453C-25.279,-6.667 -18.409,-10.99 -10.304,-10.924C-1.771,-10.855 5.281,-5.974 6.916,2.605C7.828,7.39 7.674,12.648 6.455,17.374C4.394,25.363 -2.225,29.782 -10.696,29.756" style="fill:rgb(35,31,32);fill-rule:nonzero;"/>
    </g>
    <g transform="matrix(3.1909,0,0,3.1909,625.576,122.392)">
        <path d="M0,43.391L-10.723,43.585L-10.612,11.071L-17.089,10.129L-17.008,1.395C-10.889,1.498 0.196,-0.194 0.157,8.37L0,43.391Z" style="fill:rgb(35,31,32);fill-rule:nonzero;"/>
    </g>
    <g transform="matrix(-3.08365,0.820302,0.820302,3.08365,615.434,108.27)">
        <path d="M1.557,-12.986C-2.293,-12.877 -4.824,-9.726 -4.892,-6.43C-4.968,-2.684 -2.02,-0.322 1.557,-0.048C5.073,0.222 7.749,-2.45 8.012,-5.701C8.334,-9.68 5.623,-13.101 1.557,-12.986" style="fill:rgb(35,31,32);fill-rule:nonzero;"/>
    </g>
    <g transform="matrix(3.1909,0,0,3.1909,268.925,150.938)">
        <path d="M0,11.987L4.014,42.565L-4.869,39.896L-7.315,21.267L-12.807,-21.617L-5.418,-25.616L-1.043,-16.189L12.336,12.448L6.464,-32.707L14.518,-37.63L22.418,22.041L25.999,49.617L18.497,46.978L7.748,22.959L-0.655,4.677C-0.662,7.357 -0.298,9.489 0,11.987" style="fill:rgb(35,31,32);fill-rule:nonzero;"/>
    </g>
    <g transform="matrix(3.1909,0,0,3.1909,207.11,161.904)">
        <path d="M0,11.958L-2.563,-5.657L-6.7,13.077L0,11.958ZM1.093,20.61L-8.585,21.882L-10.415,29.946L-18.277,28.151L-8.421,-17.327L3.763,-23.57L9.644,21.733L11.33,35.528L2.65,33.143L1.093,20.61Z" style="fill:rgb(35,31,32);fill-rule:nonzero;"/>
    </g>
    <g transform="matrix(3.1909,0,0,3.1909,95.4664,150.514)">
        <path d="M0,19.447L-10.349,-0.395L-1.972,-1.695L8.664,19.044L13.973,-7.684L23.132,-11.867L18.379,10.842L14.045,31.035C13.431,30.995 12.684,30.875 12.116,30.912L5.958,31.314L0,19.447Z" style="fill:rgb(35,31,32);fill-rule:nonzero;"/>
    </g>
    <g transform="matrix(3.1909,0,0,3.1909,161.997,268.277)">
        <path d="M0,28.045L-7.106,31.411C-8.169,31.914 -9.049,31.415 -9.632,30.365L-21.451,-2.913L-10.793,-3.869L-2.401,20.59C-1.539,23.474 1.574,22.522 1.634,25.322C1.654,26.307 1.125,27.512 0,28.045" style="fill:rgb(35,31,32);fill-rule:nonzero;"/>
    </g>
    <g transform="matrix(3.1909,0,0,3.1909,106.599,153.748)">
        <path d="M0,30.484L-15.261,31.589L-19.565,-0.589L-16.35,-1.105L-7.401,16.088L0,30.484Z" style="fill:rgb(35,31,32);fill-rule:nonzero;"/>
    </g>
    <g transform="matrix(3.1909,0,0,3.1909,38.6052,161.327)">
        <path d="M0,27.592C-3.172,27.125 -5.056,24.833 -5.443,21.947L-7.509,6.537C-7.807,4.315 -6.612,1.939 -4.671,0.969C-3.263,0.265 -1.837,0.063 -0.221,-0.179L3.556,27.468C2.471,27.622 1.215,27.771 0,27.592" style="fill:rgb(244,122,37);fill-rule:nonzero;"/>
    </g>
    <g transform="matrix(3.1909,0,0,3.1909,366.305,162.274)">
        <path d="M0,3.245C-0.287,7.378 -2.43,10.997 -6.281,12.85L-9.338,-9.605C-3.243,-8.59 0.247,-2.88 0,3.245" style="fill:rgb(244,122,37);fill-rule:nonzero;"/>
    </g>
    <g transform="matrix(-2.58025,1.87727,1.87727,2.58025,135.848,276.657)">
        <path d="M-3.887,4.388L-0.305,4.388L-2.655,-2.952L-5.145,-1.165L-3.887,4.388Z" style="fill:rgb(244,122,37);fill-rule:nonzero;"/>
    </g>
</svg>
