<?xml version="1.0" encoding="UTF-8" standalone="no"?>
<!DOCTYPE svg PUBLIC "-//W3C//DTD SVG 1.1//EN" "http://www.w3.org/Graphics/SVG/1.1/DTD/svg11.dtd">
<svg width="100%" height="100%" viewBox="0 0 1024 1024" version="1.1" xmlns="http://www.w3.org/2000/svg" xmlns:xlink="http://www.w3.org/1999/xlink" xml:space="preserve" xmlns:serif="http://www.serif.com/" style="fill-rule:evenodd;clip-rule:evenodd;stroke-linejoin:round;stroke-miterlimit:2;">
    <g transform="matrix(7.33556,0,0,7.33556,851.93,-2.3977e-13)">
        <path d="M0,139.594L-92.68,139.594C-105.635,139.594 -116.137,129.092 -116.137,116.137L-116.137,23.457C-116.137,10.502 -105.635,0 -92.68,0L0,0C12.955,0 23.457,10.502 23.457,23.457L23.457,116.137C23.457,129.092 12.955,139.594 0,139.594" style="fill:rgb(244,122,37);fill-rule:nonzero;"/>
    </g>
    <g transform="matrix(7.33556,0,0,7.33556,698.407,374.76)">
        <path d="M0,12.882L4.314,45.744L-5.233,42.876L-7.861,22.855L-13.764,-23.233L-5.823,-27.53L-1.121,-17.399L13.257,13.378L6.947,-35.15L15.602,-40.441L24.092,23.687L27.941,53.323L19.879,50.487L8.327,24.674L-0.704,5.026C-0.711,7.906 -0.32,10.197 0,12.882" style="fill:rgb(35,31,32);fill-rule:nonzero;"/>
    </g>
    <g transform="matrix(7.33556,0,0,7.33556,545.685,401.853)">
        <path d="M0,12.851L-2.754,-6.08L-7.201,14.054L0,12.851ZM1.174,22.149L-9.227,23.517L-11.193,32.182L-19.643,30.254L-9.05,-18.622L4.044,-25.331L10.365,23.356L12.176,38.182L2.848,35.619L1.174,22.149Z" style="fill:rgb(35,31,32);fill-rule:nonzero;"/>
    </g>
    <g transform="matrix(7.33556,0,0,7.33556,269.854,373.706)">
        <path d="M0,20.9L-11.122,-0.424L-2.119,-1.822L9.312,20.467L15.016,-8.258L24.86,-12.753L19.752,11.652L15.094,33.354C14.434,33.311 13.632,33.182 13.021,33.222L6.403,33.653L0,20.9Z" style="fill:rgb(35,31,32);fill-rule:nonzero;"/>
    </g>
    <g transform="matrix(7.33556,0,0,7.33556,434.228,664.657)">
        <path d="M0,30.14L-7.637,33.757C-8.779,34.298 -9.725,33.762 -10.351,32.634L-23.054,-3.131L-11.599,-4.158L-2.58,22.128C-1.654,25.227 1.692,24.205 1.756,27.213C1.778,28.272 1.209,29.567 0,30.14" style="fill:rgb(35,31,32);fill-rule:nonzero;"/>
    </g>
    <g transform="matrix(7.33556,0,0,7.33556,297.359,381.694)">
        <path d="M0,32.762L-16.401,33.949L-21.026,-0.633L-17.571,-1.187L-7.954,17.291L0,32.762Z" style="fill:rgb(35,31,32);fill-rule:nonzero;"/>
    </g>
    <g transform="matrix(7.33556,0,0,7.33556,129.371,400.419)">
        <path d="M0,29.654C-3.409,29.152 -5.434,26.689 -5.85,23.587L-8.07,7.027C-8.39,4.639 -7.105,2.084 -5.02,1.042C-3.507,0.286 -1.974,0.068 -0.238,-0.192L3.822,29.52C2.655,29.686 1.305,29.846 0,29.654" style="fill:white;fill-rule:nonzero;"/>
    </g>
    <g transform="matrix(7.33556,0,0,7.33556,938.997,402.76)">
        <path d="M0,3.488C-0.308,7.93 -2.611,11.819 -6.75,13.81L-10.035,-10.322C-3.485,-9.231 0.265,-3.094 0,3.488" style="fill:white;fill-rule:nonzero;"/>
    </g>
    <g transform="matrix(-5.93253,4.31457,4.31457,5.93253,369.622,685.36)">
        <path d="M-4.178,4.715L-0.328,4.715L-2.853,-3.173L-5.529,-1.252L-4.178,4.715Z" style="fill:white;fill-rule:nonzero;"/>
    </g>
</svg>
